<svg width="155" height="306" viewBox="0 0 155 306" fill="none" xmlns="http://www.w3.org/2000/svg">
<path opacity="0.7" d="M133.149 210.67C155.241 184.059 170.475 82.3775 121.668 19.6835C92.558 -17.7093 -23.3315 1.61239 1.44884 48.7482C16.8616 78.0656 11.2102 83.929 11.2102 108.736C11.2102 133.543 7.10018 172.783 11.2102 210.67C15.3203 248.557 111.058 237.281 133.149 210.67Z" fill="#FFA6EB"/>
<path d="M69.3105 248.534C79.5476 221.386 63.4728 137.14 7.12869 101.589C-26.4768 80.3852 -113.571 128.222 -80.7149 158.306C-60.2792 177.018 -63.1601 183.221 -56.2732 202.727C-49.3862 222.234 -41.7713 254.247 -27.974 282.881C-14.1767 311.516 59.0734 275.682 69.3105 248.534Z" fill="#FE63B1"/>
</svg>
